<?xml version="1.0" standalone="no"?>
<!DOCTYPE svg PUBLIC "-//W3C//DTD SVG 20010904//EN"
 "http://www.w3.org/TR/2001/REC-SVG-20010904/DTD/svg10.dtd">
<svg version="1.0" xmlns="http://www.w3.org/2000/svg"
 width="120.000000pt" height="120.000000pt" viewBox="0 0 120.000000 120.000000"
 preserveAspectRatio="xMidYMid meet">

<g transform="translate(0.000000,120.000000) scale(0.100000,-0.100000)"
fill="#000000" stroke="none">
<path d="M514 1121 c-23 -10 -58 -39 -80 -65 -23 -28 -47 -46 -59 -46 -12 0
-44 -11 -72 -25 -81 -41 -132 -122 -133 -211 0 -47 25 -127 46 -145 9 -8 14
-33 14 -78 1 -107 48 -180 135 -208 18 -6 31 -17 33 -30 5 -33 45 -63 87 -66
34 -2 41 2 53 26 10 20 20 27 43 27 19 0 29 5 29 15 0 10 -10 15 -30 15 -20 0
-30 5 -30 15 0 10 10 15 30 15 20 0 30 5 30 15 0 10 -10 15 -28 15 -22 0 -31
7 -43 33 -11 25 -21 33 -47 35 -39 4 -79 -19 -92 -53 -7 -18 -14 -23 -27 -18
-38 14 -65 38 -90 80 -21 36 -25 53 -21 95 5 42 1 57 -18 86 -51 74 -54 159
-8 239 27 47 86 80 153 87 38 3 46 8 65 42 40 72 117 105 195 84 44 -12 116
-69 126 -100 4 -11 20 -20 46 -24 65 -10 117 -43 148 -92 52 -81 49 -152 -9
-232 -29 -40 -29 -44 -18 -86 15 -58 -9 -129 -56 -157 -41 -25 -49 -24 -84 11
-24 24 -39 30 -72 30 -36 0 -40 -2 -32 -17 17 -31 24 -120 13 -158 l-10 -37
31 6 c45 9 79 34 91 67 8 19 22 33 44 40 70 23 133 138 117 216 -4 20 4 45 25
87 50 93 41 187 -26 274 -27 35 -112 82 -150 82 -14 0 -29 13 -43 35 -12 20
-45 49 -74 65 -62 36 -138 40 -202 11z"/>
<path d="M373 846 c-62 -57 -95 -109 -86 -133 7 -19 20 -17 92 17 35 17 66 28
69 26 2 -3 -1 -19 -7 -37 -16 -47 -14 -117 6 -149 40 -68 180 -97 255 -53 69
40 95 120 67 202 -6 18 -9 34 -7 37 3 2 31 -9 63 -26 98 -52 120 -34 66 52
-24 37 -44 54 -102 82 -82 40 -114 45 -128 17 -17 -31 -66 -46 -103 -30 -18 7
-45 12 -59 11 -17 -2 -34 4 -47 18 l-20 21 -59 -55z m161 -72 c8 -20 -12 -66
-27 -61 -20 6 -15 42 7 40 13 -1 15 2 7 10 -7 7 -16 5 -31 -8 -17 -16 -20 -16
-20 -2 0 39 51 56 64 21z m196 -13 c0 -13 -2 -13 -9 -2 -5 8 -18 12 -30 8 -25
-6 -28 8 -4 22 21 11 43 -3 43 -28z m-20 -24 c0 -8 -3 -17 -7 -20 -9 -9 -34
13 -27 24 8 14 34 11 34 -4z"/>
<path d="M660 381 c0 -10 7 -21 15 -25 10 -3 15 1 15 13 0 10 -7 21 -15 25
-10 3 -15 -1 -15 -13z"/>
<path d="M660 317 c0 -8 7 -18 16 -21 11 -4 14 -1 12 11 -4 21 -28 30 -28 10z"/>
<path d="M105 188 c-15 -14 -28 -38 -31 -59 -5 -31 -1 -42 24 -70 l30 -34 466
-3 c514 -3 509 -3 542 59 15 29 15 34 -1 69 -9 21 -28 43 -41 49 -17 8 -170
11 -494 11 l-469 0 -26 -22z m175 -19 c0 -11 5 -17 10 -14 6 3 19 3 30 0 15
-5 20 -15 20 -41 0 -19 -4 -34 -10 -34 -5 0 -10 11 -10 24 0 15 -7 26 -20 29
-17 4 -20 0 -20 -24 0 -16 -4 -29 -10 -29 -5 0 -10 25 -10 55 0 30 5 55 10 55
6 0 10 -9 10 -21z m460 3 c0 -13 8 -18 28 -17 24 0 27 -4 30 -37 2 -22 -1 -38
-7 -38 -6 0 -11 11 -11 24 0 15 -7 26 -20 29 -17 4 -20 0 -20 -24 0 -16 -4
-29 -10 -29 -5 0 -10 25 -10 55 0 30 5 55 10 55 6 0 10 -8 10 -18z m-500 -2
c0 -5 -16 -10 -35 -10 -19 0 -35 -4 -35 -10 0 -5 13 -10 29 -10 33 0 54 -20
45 -44 -4 -11 -19 -16 -50 -16 -24 0 -44 5 -44 10 0 6 16 10 35 10 19 0 35 5
35 10 0 6 -14 10 -30 10 -32 0 -47 18 -36 45 6 17 86 22 86 5z m190 -25 c9
-11 8 -19 -7 -39 -35 -48 -91 -18 -63 34 13 23 52 27 70 5z m90 0 c16 -19 -16
-64 -47 -65 -19 0 -23 5 -23 33 0 19 3 37 7 40 12 12 50 7 63 -8z m88 6 c8 -5
12 -21 10 -37 -2 -22 -9 -30 -28 -32 -13 -2 -30 -11 -37 -20 -10 -14 -12 -9
-13 35 0 32 5 53 13 56 19 8 41 7 55 -2z m96 -22 c8 -41 2 -49 -40 -49 -43 0
-45 20 -1 21 27 2 28 2 7 6 -14 3 -29 9 -34 13 -14 13 13 40 39 40 17 0 24 -7
29 -31z m184 -11 c3 -37 3 -38 -32 -38 -39 0 -47 13 -32 53 8 22 16 27 36 25
21 -3 25 -9 28 -40z m87 27 c0 -5 -10 -11 -22 -13 -17 -3 -23 -10 -23 -28 0
-13 -4 -24 -10 -24 -15 0 -12 67 3 74 19 8 52 2 52 -9z m85 0 c18 -22 -17 -66
-50 -62 -28 2 -40 38 -20 63 16 18 54 18 70 -1z"/>
<path d="M377 133 c-13 -13 -7 -21 13 -16 11 3 20 9 20 14 0 10 -24 12 -33 2z"/>
<path d="M467 133 c-13 -13 -7 -21 13 -16 11 3 20 9 20 14 0 10 -24 12 -33 2z"/>
<path d="M560 115 c0 -8 9 -15 20 -15 11 0 20 7 20 15 0 8 -9 15 -20 15 -11 0
-20 -7 -20 -15z"/>
<path d="M870 121 c0 -5 -10 -12 -22 -14 -20 -4 -19 -4 5 -6 18 -1 27 4 27 14
0 8 -2 15 -5 15 -3 0 -5 -4 -5 -9z"/>
<path d="M1003 125 c-3 -9 -3 -19 1 -22 3 -4 6 -1 6 5 0 7 7 12 15 12 8 0 15
5 15 10 0 16 -30 12 -37 -5z"/>
</g>
</svg>
